<svg id="Layer_1" data-name="Layer 1" xmlns="http://www.w3.org/2000/svg" viewBox="0 0 234.56 244.14"><defs><style>.cls-1{fill:#e50c45;}.cls-2{fill:#ff9659;}.cls-3{fill:#f76d53;}</style></defs><path class="cls-1" d="M837.5,99c0-30.35,0-60.71.47-91.53C888.72,7,939,7,989.3,7a106.73,106.73,0,0,1,15.27,1,78.54,78.54,0,0,1,43.06,20.66c16.43,15.39,24.85,34.12,24,57.08A69.52,69.52,0,0,1,1055.13,129c-.21,0-.62,0-.78-.31a83.37,83.37,0,0,0-32.16-23.34c-10.93-4.45-22.4-6.19-34-6.24C938,98.89,887.72,99,837.5,99Z" transform="translate(-837.5 -7.01)"/><path class="cls-2" d="M1054.51,129a1.26,1.26,0,0,1,.76.34c17.52,19.46,22.17,51.23,9.94,76-14.61,29.61-39.45,45.17-72.44,45.56-51.75.6-103.51.16-155.27.16,0-30.35,0-60.71.47-91.53,49.09-.47,97.72-.44,146.34-.51a136,136,0,0,0,18.39-1C1023.68,155,1041.09,145.5,1054.51,129Z" transform="translate(-837.5 -7.01)"/><path class="cls-3" d="M1054.35,128.66c-13.26,16.84-30.67,26.37-51.65,29.28a136,136,0,0,1-18.39,1c-48.62.07-97.25,0-146.34,0-.47-19.69-.47-39.38-.47-59.53q75.33-.7,150.67-.39c11.62,0,23.09,1.79,34,6.24A83.37,83.37,0,0,1,1054.35,128.66Z" transform="translate(-837.5 -7.01)"/></svg>